<svg xmlns="http://www.w3.org/2000/svg" width="860" height="408" viewBox="0 0 860 408">
<rect width="100%" height="100%" fill="#f7fafc" />
<text x="24" y="36" font-size="22" font-family="Georgia, serif" fill="#1a202c">RSI yardstick drift PoC summary</text>
<text x="180" y="72" font-size="14" font-family="Verdana, sans-serif" fill="#2d3748">Strict score</text>
<text x="410" y="72" font-size="14" font-family="Verdana, sans-serif" fill="#2d3748">Proxy score</text>
<text x="640" y="72" font-size="14" font-family="Verdana, sans-serif" fill="#2d3748">Challenge failures</text>
<text x="24" y="120" font-size="13" font-family="Verdana, sans-serif" fill="#1a202c">baseline_1b_strict</text>
<rect x="180" y="102" width="180" height="22" fill="#e2e8f0" rx="4" />
<rect x="180" y="102" width="53.33" height="22" fill="#2b6cb0" rx="4" />
<text x="370" y="118" font-size="12" font-family="Verdana, sans-serif" fill="#2d3748">0.2963</text>
<rect x="410" y="102" width="180" height="22" fill="#e2e8f0" rx="4" />
<rect x="410" y="102" width="113.33" height="22" fill="#c05621" rx="4" />
<text x="600" y="118" font-size="12" font-family="Verdana, sans-serif" fill="#2d3748">0.6296</text>
<rect x="640" y="102" width="180" height="22" fill="#e2e8f0" rx="4" />
<rect x="640" y="102" width="124.62" height="22" fill="#2f855a" rx="4" />
<text x="830" y="118" font-size="12" font-family="Verdana, sans-serif" fill="#2d3748">9.0</text>
<text x="24" y="192" font-size="13" font-family="Verdana, sans-serif" fill="#1a202c">proxy_gaming_1b</text>
<rect x="180" y="174" width="180" height="22" fill="#e2e8f0" rx="4" />
<rect x="180" y="174" width="13.34" height="22" fill="#2b6cb0" rx="4" />
<text x="370" y="190" font-size="12" font-family="Verdana, sans-serif" fill="#2d3748">0.0741</text>
<rect x="410" y="174" width="180" height="22" fill="#e2e8f0" rx="4" />
<rect x="410" y="174" width="100.01" height="22" fill="#c05621" rx="4" />
<text x="600" y="190" font-size="12" font-family="Verdana, sans-serif" fill="#2d3748">0.5556</text>
<rect x="640" y="174" width="180" height="22" fill="#e2e8f0" rx="4" />
<rect x="640" y="174" width="180.0" height="22" fill="#2f855a" rx="4" />
<text x="830" y="190" font-size="12" font-family="Verdana, sans-serif" fill="#2d3748">13.0</text>
<text x="24" y="264" font-size="13" font-family="Verdana, sans-serif" fill="#1a202c">real_model_change_4b</text>
<rect x="180" y="246" width="180" height="22" fill="#e2e8f0" rx="4" />
<rect x="180" y="246" width="126.67" height="22" fill="#2b6cb0" rx="4" />
<text x="370" y="262" font-size="12" font-family="Verdana, sans-serif" fill="#2d3748">0.7037</text>
<rect x="410" y="246" width="180" height="22" fill="#e2e8f0" rx="4" />
<rect x="410" y="246" width="173.34" height="22" fill="#c05621" rx="4" />
<text x="600" y="262" font-size="12" font-family="Verdana, sans-serif" fill="#2d3748">0.963</text>
<rect x="640" y="246" width="180" height="22" fill="#e2e8f0" rx="4" />
<rect x="640" y="246" width="96.92" height="22" fill="#2f855a" rx="4" />
<text x="830" y="262" font-size="12" font-family="Verdana, sans-serif" fill="#2d3748">7.0</text>
<text x="24" y="336" font-size="13" font-family="Verdana, sans-serif" fill="#1a202c">ruler_drift_only</text>
<rect x="180" y="318" width="180" height="22" fill="#e2e8f0" rx="4" />
<rect x="180" y="318" width="53.33" height="22" fill="#2b6cb0" rx="4" />
<text x="370" y="334" font-size="12" font-family="Verdana, sans-serif" fill="#2d3748">0.2963</text>
<rect x="410" y="318" width="180" height="22" fill="#e2e8f0" rx="4" />
<rect x="410" y="318" width="113.33" height="22" fill="#c05621" rx="4" />
<text x="600" y="334" font-size="12" font-family="Verdana, sans-serif" fill="#2d3748">0.6296</text>
<rect x="640" y="318" width="180" height="22" fill="#e2e8f0" rx="4" />
<rect x="640" y="318" width="124.62" height="22" fill="#2f855a" rx="4" />
<text x="830" y="334" font-size="12" font-family="Verdana, sans-serif" fill="#2d3748">9.0</text>
</svg>
